# xmcd CD database file
#
# Track frame offsets:
#	150
#	19110
#	40669
#	56561
#	78963
#	98593
#	118720
#	141900
#	160415
#	183303
#	203879
#	224490
#	245428
#	266308
#	281706
#	300327
#	327545
#
# Disc length: 4630 seconds
#
# Revision: 2
# Processed by: cddbd v1.5.2PL0 Copyright (c) Steve Scherf et al.
# Submitted via: CdAid (MTCDDB.DLL V2003.12.21)
#
DISCID=ee121411
DTITLE=CARABOA - CARABOA HITZ
DYEAR=2007
DGENRE=Rock
TTITLE0=MADE IN THAILAND
TTITLE1=WANIPOK
TTITLE2=RACHANGONPON
TTITLE3=KONJONPOOYINGYAI
TTITLE4=POLEE
TTITLE5=KUMNONPOOYAI
TTITLE6=LANGBANG
TTITLE7=HUMTERM
TTITLE8=SURACHAISAMCHA
TTITLE9=HUAMPOOKUN
TTITLE10=POOTON
TTITLE11=SAINGEASAN
TTITLE12=KHONHUNGNAIV
TTITLE13=HITUYTALANGKAN
TTITLE14=HOLALA
TTITLE15=HUMHAIN
TTITLE16=MANGKAHAI
EXTD=miti2006 ID3G:  17 YEAR: 2007
EXTT0=
EXTT1=
EXTT2=
EXTT3=
EXTT4=
EXTT5=
EXTT6=
EXTT7=
EXTT8=
EXTT9=
EXTT10=
EXTT11=
EXTT12=
EXTT13=
EXTT14=
EXTT15=
EXTT16=
PLAYORDER=
